HIERARCHY
ROOT Hips
{
  OFFSET 279.157 85.6768 304.565
  CHANNELS 6 Xposition Yposition Zposition Zrotation Xrotation Yrotation
  JOINT LeftUpLeg
  {
    OFFSET 8.64259 1.95398 -2.38835
    CHANNELS 3 Zrotation Xrotation Yrotation
    JOINT LeftLeg
    {
      OFFSET 43.7702 0 0
      CHANNELS 3 Zrotation Xrotation Yrotation
      JOINT LeftFoot
      {
        OFFSET 40.6238 0 0
        CHANNELS 3 Zrotation Xrotation Yrotation
        JOINT LeftToeBase
        {
          OFFSET 12.7242 0 0
          CHANNELS 3 Zrotation Xrotation Yrotation
          End Site
          {
            OFFSET 0 0 0
          }
        }
      }
    }
  }
  JOINT RightUpLeg
  {
    OFFSET -8.2249 1.95398 -2.59336
    CHANNELS 3 Zrotation Xrotation Yrotation
    JOINT RightLeg
    {
      OFFSET 43.5653 0 0
      CHANNELS 3 Zrotation Xrotation Yrotation
      JOINT RightFoot
      {
        OFFSET 40.6238 0 0
        CHANNELS 3 Zrotation Xrotation Yrotation
        JOINT RightToeBase
        {
          OFFSET 12.7242 0 0
          CHANNELS 3 Zrotation Xrotation Yrotation
          End Site
          {
            OFFSET 0 0 0
          }
        }
      }
    }
  }
  JOINT Spine
  {
    OFFSET 0.165834 0.87714 6.61349
    CHANNELS 3 Zrotation Xrotation Yrotation
    JOINT Spine1
    {
      OFFSET 7.38963 1.71661e-005 0
      CHANNELS 3 Zrotation Xrotation Yrotation
      JOINT Spine2
      {
        OFFSET 11.9445 1.14441e-005 0
        CHANNELS 3 Zrotation Xrotation Yrotation
        JOINT Spine3
        {
          OFFSET 14.7254 4.19617e-005 0
          CHANNELS 3 Zrotation Xrotation Yrotation
          JOINT Spine4
          {
            OFFSET 10.9679 0 0
            CHANNELS 3 Zrotation Xrotation Yrotation
            JOINT RightShoulder
            {
              OFFSET 2.46616 -1.6653 3.69651
              CHANNELS 3 Zrotation Xrotation Yrotation
              JOINT RightArm
              {
                OFFSET 13.0012 0 0
                CHANNELS 3 Zrotation Xrotation Yrotation
                JOINT RightForeArm
                {
                  OFFSET 28.7848 1.52588e-005 0
                  CHANNELS 3 Zrotation Xrotation Yrotation
                  JOINT RightHand
                  {
                    OFFSET 26.5688 1.52588e-005 0
                    CHANNELS 3 Zrotation Xrotation Yrotation
                    End Site
                    {
                      OFFSET 0 0 0
                    }
                  }
                }
              }
            }
            JOINT LeftShoulder
            {
              OFFSET 2.38034 -1.29275 -3.7523
              CHANNELS 3 Zrotation Xrotation Yrotation
              JOINT LeftArm
              {
                OFFSET 16.3182 6.10351e-005 0
                CHANNELS 3 Zrotation Xrotation Yrotation
                JOINT LeftForeArm
                {
                  OFFSET 27.0901 0 0
                  CHANNELS 3 Zrotation Xrotation Yrotation
                  JOINT LeftHand
                  {
                    OFFSET 24.5451 1.52588e-005 0
                    CHANNELS 3 Zrotation Xrotation Yrotation
                    End Site
                    {
                      OFFSET 0 0 0
                    }
                  }
                }
              }
            }
            JOINT Neck
            {
              OFFSET 5.0226 -0.0266342 0
              CHANNELS 3 Zrotation Xrotation Yrotation
              JOINT Head
              {
                OFFSET 6.69364 2.86102e-005 0
                CHANNELS 3 Zrotation Xrotation Yrotation
                End Site
                {
                  OFFSET 0 0 0
                }
              }
            }
          }
        }
      }
    }
  }
}
MOTION
Frames:	7
Frame Time:	0.0416667
40.8493 103.311 -258.066 -161.171 -84.775 -162.294 -175.577 -3.65727 87.6515 -9.36151 4.84181 0.326893 67.984 4.77267 -1.40971 19.9533 -7.84344 8.86581 174.546 -2.9344 90.6373 -9.93774 -5.33698 0.199275 66.0271 -3.06406 0.159549 24.4637 1.38404 0.614485 0.192112 7.53189 -90.0802 11.8104 0.344398 -0.196399 0.139494 0.335422 -0.21138 -22.396 0.387496 -0.0838164 -2.38336 0.387507 -0.0838121 88.0374 -31.892 -109.82 40.0861 -13.4045 -5.60018 2.13836 -29.5474 -15.5339 -25.7149 -0.867165 -8.40981 -90.0044 -54.62 79.6706 -20.104 14.7463 -13.2437 -0.352527 11.7947 -9.81079 3.31953 -0.449285 -11.5772 6.91249 -2.52918 -1.35349 -7.81194 -2.20631 -0.198261 
40.7553 103.272 -258.045 -161.49 -84.9329 -162.541 -175.65 -2.5192 87.7649 -11.3439 3.55326 0.583505 69.5515 5.01086 -2.23326 15.9719 -8.86292 4.78523 174.777 -2.59278 90.8442 -10.3164 -5.08758 0.104152 65.7281 -2.97192 0.762808 25.047 1.19087 0.581199 0.194659 7.52347 -90.0563 11.8272 0.360654 -0.150689 0.156288 0.353666 -0.166418 -22.3793 0.389268 -0.0353259 -2.36659 0.389268 -0.0353314 87.3829 -32.9367 -110.623 39.1443 -13.3748 -5.60214 2.96256 -30.1162 -15.0407 -26.0245 -0.990752 -7.8715 -89.6339 -54.3109 80.1382 -20.1645 14.6808 -13.2071 -0.393101 12.0166 -9.7223 2.32916 -0.416502 -11.4337 6.41289 -2.45609 -2.08692 -6.87163 -2.00144 -0.140631 
40.6414 103.284 -257.928 -158.487 -84.974 -159.373 -175.672 -2.47072 87.9173 -11.2886 3.06951 0.730364 69.8114 5.10446 -2.43996 14.9663 -9.11723 3.87482 175.047 -2.51142 91.1763 -10.4339 -4.75104 -0.00771286 66.0569 -3.22043 0.565961 25.0744 1.21405 0.384975 0.242134 7.51726 -90.0833 11.8398 0.442392 -0.213137 0.168945 0.432579 -0.232407 -22.3668 0.485991 -0.0703251 -2.35415 0.485988 -0.0703308 87.3524 -32.5801 -110.83 39.3952 -13.0517 -6.17482 4.23599 -29.4907 -12.9338 -26.1721 -0.824276 -8.56382 -89.6187 -53.9487 80.0902 -20.7559 14.315 -13.1242 -1.10075 11.7255 -8.04571 -1.74576 -0.0886004 -6.76383 6.4756 -2.48434 -1.96813 -7.01527 -2.04754 -0.212459 
40.5166 103.266 -257.677 -158.776 -85.2394 -159.927 -175.79 -2.66978 87.716 -10.7097 3.17321 0.728061 69.7165 5.20938 -2.34887 15.0524 -9.07757 3.91001 175.037 -2.26267 91.0718 -10.8355 -4.67309 -0.100324 66.3963 -3.36805 0.485717 24.9165 1.25547 0.460949 0.234616 7.47743 -90.0874 11.9195 0.425391 -0.220151 0.248562 0.415291 -0.238668 -22.2871 0.471883 -0.0821236 -2.27447 0.47189 -0.0821214 87.7471 -32.3471 -110.183 39.5994 -13.2223 -6.19944 3.90498 -29.7444 -13.3052 -25.8402 -0.82235 -8.68762 -89.8486 -54.5435 79.8774 -20.5272 14.171 -12.7131 -1.05783 11.4269 -8.13421 -1.35875 -0.116331 -7.27429 6.49779 -2.39531 -1.00746 -7.2695 -2.10885 -1.07321 
40.2743 103.244 -257.352 -161.516 -85.3572 -162.664 -175.618 -2.82904 87.9411 -10.7276 3.60438 0.663845 69.6996 5.24375 -2.20761 15.2014 -8.7414 3.30242 175.061 -2.44196 91.2089 -10.9091 -4.3794 -0.0300523 66.6625 -3.4899 0.626275 24.9709 1.31709 -0.0181324 0.209274 7.50673 -90.0421 11.8607 0.396383 -0.126331 0.189821 0.390438 -0.143658 -22.3458 0.416023 -0.00135788 -2.33318 0.416019 -0.00135998 87.1248 -32.7898 -111.169 39.0405 -13.4539 -6.44116 5.42874 -29.2007 -12.3178 -27.788 -0.733281 -8.79106 -89.6685 -53.6923 79.9689 -21.2372 13.7115 -12.7275 -0.761648 11.1928 -7.99621 -1.26727 -0.119163 -7.33864 6.40571 -2.48328 -2.3464 -6.73704 -1.98835 0.109402 
39.8702 103.212 -256.973 -162.072 -85.5064 -163.344 -175.606 -2.91994 88.0744 -10.7828 3.44556 0.755013 69.9845 5.38217 -2.81656 15.3915 -8.67517 3.4247 175.017 -2.59144 91.3048 -10.9027 -4.33406 0.0844375 66.9178 -3.66632 0.371522 25.109 1.24675 0.115409 0.239434 7.49424 -90.0718 11.8858 0.442349 -0.190557 0.214955 0.433531 -0.209845 -22.3208 0.47916 -0.0487983 -2.30814 0.479162 -0.0488041 88.0848 -32.238 -109.589 39.6925 -13.2873 -6.71281 4.76169 -29.5741 -12.5169 -25.8047 -0.689599 -9.35172 -89.7419 -54.7225 80.0634 -20.2737 13.4086 -12.8423 -0.743604 12.5563 -7.72251 -1.83755 -0.109992 -8.42417 6.47601 -2.50844 -1.05094 -7.06475 -2.22938 -0.711109 
39.2875 103.17 -256.459 -160.513 -85.5759 -161.925 -175.024 -3.29114 88.62 -10.4913 4.00683 0.265935 69.983 5.84045 -2.57962 16.1955 -8.65725 4.63297 175.16 -2.62411 91.5323 -11.4137 -3.9516 0.0195582 67.4967 -3.85925 0.607695 24.5591 1.38123 0.441574 0.25504 7.51275 -90.0541 11.8487 0.481748 -0.159516 0.177853 0.474265 -0.180568 -22.358 0.50741 -0.00734755 -2.34535 0.507421 -0.00735027 87.7439 -32.014 -110.328 39.4507 -13.6935 -6.5988 4.86221 -28.7108 -12.8492 -26.6999 -0.874052 -8.01842 -89.558 -55.2262 80.4204 -19.7852 13.2376 -12.4487 -0.649348 10.2216 -8.25762 -2.02723 -0.101548 -9.03058 6.28224 -2.18814 0.0539178 -7.03227 -2.09092 -1.59974 
